<svg width="19" height="19" viewBox="0 0 19 19" fill="none" xmlns="http://www.w3.org/2000/svg">
<path d="M15.4666 3.3999H3.73326C3.14979 3.3999 2.59021 3.63169 2.17763 4.04427C1.76505 4.45685 1.53326 5.01643 1.53326 5.5999V12.9332C1.53326 13.5167 1.76505 14.0763 2.17763 14.4889C2.59021 14.9015 3.14979 15.1332 3.73326 15.1332H15.4666C16.0501 15.1332 16.6097 14.9015 17.0222 14.4889C17.4348 14.0763 17.6666 13.5167 17.6666 12.9332V5.5999C17.6666 5.01643 17.4348 4.45685 17.0222 4.04427C16.6097 3.63169 16.0501 3.3999 15.4666 3.3999ZM16.1999 12.7499L12.6066 9.52324L16.1999 7.0079V12.7499ZM2.99993 7.0079L6.59326 9.52324L2.99993 12.7499V7.0079ZM7.82526 10.3886L9.18193 11.3346C9.30469 11.4197 9.45053 11.4654 9.59993 11.4654C9.74933 11.4654 9.89517 11.4197 10.0179 11.3346L11.3746 10.3886L15.0413 13.6666H4.17326L7.82526 10.3886ZM3.73326 4.86657H15.4666C15.6028 4.86766 15.736 4.90666 15.8513 4.97919C15.9665 5.05173 16.0593 5.15493 16.1193 5.27724L9.59993 9.83857L3.0806 5.27724C3.14052 5.15493 3.23332 5.05173 3.3486 4.97919C3.46387 4.90666 3.59707 4.86766 3.73326 4.86657Z" fill="#661ED3"/>
</svg>
