<svg width="19" height="18" viewBox="0 0 19 18" fill="none" xmlns="http://www.w3.org/2000/svg">
<path d="M15.7934 1.66699H2.74009C2.52615 1.66699 2.32097 1.75198 2.16969 1.90326C2.01841 2.05454 1.93343 2.25972 1.93343 2.47366V15.527C1.93343 15.6329 1.95429 15.7378 1.99483 15.8357C2.03537 15.9336 2.09479 16.0225 2.16969 16.0974C2.2446 16.1723 2.33353 16.2317 2.43139 16.2723C2.52926 16.3128 2.63416 16.3337 2.74009 16.3337H9.76543V10.6503H7.85876V8.45033H9.76543V6.80033C9.72593 6.41295 9.77166 6.02162 9.89942 5.65379C10.0272 5.28595 10.2339 4.95053 10.505 4.67103C10.7761 4.39153 11.1051 4.17473 11.4688 4.03583C11.8326 3.89694 12.2224 3.83931 12.6108 3.86699C13.1815 3.86348 13.752 3.89286 14.3194 3.95499V5.93499H13.1534C12.2294 5.93499 12.0534 6.37499 12.0534 7.01299V8.42833H14.2534L13.9674 10.6283H12.0534V16.3337H15.7934C15.8994 16.3337 16.0043 16.3128 16.1021 16.2723C16.2 16.2317 16.2889 16.1723 16.3638 16.0974C16.4387 16.0225 16.4981 15.9336 16.5387 15.8357C16.5792 15.7378 16.6001 15.6329 16.6001 15.527V2.47366C16.6001 2.36773 16.5792 2.26283 16.5387 2.16496C16.4981 2.06709 16.4387 1.97817 16.3638 1.90326C16.2889 1.82835 16.2 1.76893 16.1021 1.7284C16.0043 1.68786 15.8994 1.66699 15.7934 1.66699Z" fill="#313131"/>
</svg>
