<svg width="18" height="18" viewBox="0 0 18 18" fill="none" xmlns="http://www.w3.org/2000/svg">
<path d="M13.1161 4.20433C12.9421 4.20433 12.7719 4.25594 12.6272 4.35263C12.4825 4.44933 12.3697 4.58677 12.3031 4.74756C12.2365 4.90836 12.2191 5.0853 12.253 5.25601C12.287 5.42671 12.3708 5.58351 12.4939 5.70658C12.6169 5.82965 12.7737 5.91346 12.9444 5.94742C13.1151 5.98137 13.2921 5.96394 13.4529 5.89734C13.6137 5.83073 13.7511 5.71794 13.8478 5.57323C13.9445 5.42851 13.9961 5.25837 13.9961 5.08433C13.9961 4.85093 13.9034 4.6271 13.7384 4.46207C13.5733 4.29704 13.3495 4.20433 13.1161 4.20433ZM16.4894 5.97899C16.4752 5.37054 16.3612 4.76855 16.1521 4.19699C15.9656 3.70796 15.6754 3.26513 15.3014 2.89899C14.9383 2.5231 14.4945 2.23472 14.0034 2.05566C13.4334 1.84018 12.8307 1.72361 12.2214 1.71099C11.4441 1.66699 11.1948 1.66699 9.20011 1.66699C7.20544 1.66699 6.95611 1.66699 6.17878 1.71099C5.56949 1.72361 4.96683 1.84018 4.39678 2.05566C3.90667 2.23653 3.46319 2.52467 3.09878 2.89899C2.72289 3.26212 2.4345 3.70598 2.25544 4.19699C2.03996 4.76704 1.9234 5.3697 1.91078 5.97899C1.86678 6.75633 1.86678 7.00566 1.86678 9.00033C1.86678 10.995 1.86678 11.2443 1.91078 12.0217C1.9234 12.6309 2.03996 13.2336 2.25544 13.8037C2.4345 14.2947 2.72289 14.7385 3.09878 15.1017C3.46319 15.476 3.90667 15.7641 4.39678 15.945C4.96683 16.1605 5.56949 16.277 6.17878 16.2897C6.95611 16.3337 7.20544 16.3337 9.20011 16.3337C11.1948 16.3337 11.4441 16.3337 12.2214 16.2897C12.8307 16.277 13.4334 16.1605 14.0034 15.945C14.4945 15.7659 14.9383 15.4775 15.3014 15.1017C15.6771 14.7369 15.9676 14.2937 16.1521 13.8037C16.3612 13.2321 16.4752 12.6301 16.4894 12.0217C16.4894 11.2443 16.5334 10.995 16.5334 9.00033C16.5334 7.00566 16.5334 6.75633 16.4894 5.97899ZM15.1694 11.9337C15.1641 12.3992 15.0798 12.8604 14.9201 13.2977C14.803 13.6168 14.615 13.9052 14.3701 14.141C14.1322 14.3834 13.8445 14.571 13.5268 14.691C13.0895 14.8507 12.6283 14.935 12.1628 14.9403C11.4294 14.977 11.1581 14.9843 9.22944 14.9843C7.30078 14.9843 7.02944 14.9843 6.29611 14.9403C5.81276 14.9494 5.33148 14.875 4.87344 14.7203C4.56968 14.5942 4.2951 14.407 4.06678 14.1703C3.82337 13.9347 3.63766 13.6461 3.52411 13.327C3.34507 12.8834 3.24577 12.4117 3.23078 11.9337C3.23078 11.2003 3.18678 10.929 3.18678 9.00033C3.18678 7.07166 3.18678 6.80033 3.23078 6.06699C3.23406 5.5911 3.32094 5.11949 3.48744 4.67366C3.61654 4.36413 3.8147 4.08821 4.06678 3.86699C4.28957 3.61485 4.56492 3.4146 4.87344 3.28033C5.32045 3.11902 5.79157 3.03472 6.26678 3.03099C7.00011 3.03099 7.27144 2.98699 9.20011 2.98699C11.1288 2.98699 11.4001 2.98699 12.1334 3.03099C12.5989 3.03633 13.0602 3.12064 13.4974 3.28033C13.8307 3.404 14.1298 3.60508 14.3701 3.86699C14.6104 4.09226 14.7982 4.36766 14.9201 4.67366C15.0831 5.12021 15.1675 5.59163 15.1694 6.06699C15.2061 6.80033 15.2134 7.07166 15.2134 9.00033C15.2134 10.929 15.2061 11.2003 15.1694 11.9337ZM9.20011 5.23833C8.45637 5.23978 7.72975 5.46164 7.11206 5.8759C6.49436 6.29015 6.01332 6.8782 5.72971 7.56574C5.44609 8.25329 5.37264 9.00947 5.51862 9.73874C5.66461 10.468 6.02348 11.1377 6.5499 11.663C7.07631 12.1884 7.74665 12.546 8.47621 12.6906C9.20576 12.8351 9.9618 12.7602 10.6488 12.4753C11.3358 12.1903 11.9229 11.7081 12.3359 11.0896C12.749 10.4711 12.9694 9.74407 12.9694 9.00033C12.9704 8.5054 12.8735 8.01517 12.6844 7.55783C12.4952 7.10048 12.2175 6.68505 11.8671 6.33543C11.5168 5.98581 11.1009 5.70889 10.6432 5.52061C10.1854 5.33232 9.69503 5.23639 9.20011 5.23833ZM9.20011 11.4423C8.71713 11.4423 8.24499 11.2991 7.84341 11.0308C7.44182 10.7624 7.12882 10.3811 6.94399 9.93484C6.75917 9.48862 6.71081 8.99762 6.80503 8.52392C6.89926 8.05021 7.13183 7.61509 7.47335 7.27357C7.81487 6.93205 8.25 6.69947 8.7237 6.60525C9.1974 6.51102 9.68841 6.55938 10.1346 6.74421C10.5808 6.92904 10.9622 7.24204 11.2306 7.64362C11.4989 8.04521 11.6421 8.51734 11.6421 9.00033C11.6421 9.32101 11.5789 9.63856 11.4562 9.93484C11.3335 10.2311 11.1536 10.5003 10.9269 10.7271C10.7001 10.9538 10.4309 11.1337 10.1346 11.2564C9.83835 11.3792 9.5208 11.4423 9.20011 11.4423Z" fill="#313131"/>
</svg>
