<svg width="19" height="18" viewBox="0 0 19 18" fill="none" xmlns="http://www.w3.org/2000/svg">
<g clip-path="url(#clip0_1_181)">
<path d="M16.0664 1.1875H2.56664C1.92019 1.1875 1.39624 1.69544 1.39624 2.32235V15.8921C1.39624 16.519 1.92037 17.0275 2.56664 17.0275H16.0664C16.7128 17.0275 17.2361 16.5189 17.2361 15.8921V2.32235C17.2361 1.69561 16.7128 1.1875 16.0664 1.1875ZM6.1984 14.4466H3.80515V7.29505H6.1984V14.4466ZM5.00195 6.31808H4.98594C4.18338 6.31808 3.66312 5.76913 3.66312 5.08203C3.66312 4.38102 4.19869 3.84704 5.01709 3.84704C5.83566 3.84704 6.3392 4.38084 6.35504 5.08203C6.35504 5.76931 5.83584 6.31808 5.00195 6.31808ZM14.8256 14.4466H12.433V10.6204C12.433 9.65873 12.0863 9.00278 11.2211 9.00278C10.5592 9.00278 10.1663 9.44542 9.99384 9.87257C9.92978 10.0253 9.91411 10.2387 9.91411 10.452V14.4465H7.52192C7.52192 14.4465 7.55325 7.96561 7.52192 7.29487H9.91429V8.30881C10.232 7.82164 10.7994 7.12662 12.0701 7.12662C13.6448 7.12662 14.8256 8.14812 14.8256 10.3458V14.4466ZM9.8988 8.33152C9.90302 8.32483 9.90866 8.31673 9.91429 8.30899V8.33152H9.8988Z" fill="#313131"/>
</g>
<defs>
<clipPath id="clip0_1_181">
<rect width="17.6" height="17.6" fill="white" transform="translate(0.600098 0.200195)"/>
</clipPath>
</defs>
</svg>
