<svg width="18" height="19" viewBox="0 0 18 19" fill="none" xmlns="http://www.w3.org/2000/svg">
<path d="M14.2559 9.99997C14.0946 9.99997 13.9259 9.94864 13.7646 9.91197C13.4379 9.83997 13.1168 9.74439 12.8039 9.62597C12.4637 9.5022 12.0897 9.50863 11.754 9.64401C11.4182 9.7794 11.1444 10.0342 10.9852 10.3593L10.8239 10.6893C10.1096 10.292 9.45329 9.79847 8.87324 9.22264C8.2974 8.64258 7.80391 7.98623 7.40657 7.27197L7.71457 7.06664C8.03971 6.90744 8.29448 6.63362 8.42986 6.29788C8.56524 5.96213 8.57167 5.58817 8.4479 5.24797C8.33147 4.93441 8.23592 4.61349 8.1619 4.2873C8.12524 4.12597 8.0959 3.9573 8.0739 3.78864C7.98485 3.27209 7.71429 2.80431 7.31096 2.46954C6.90762 2.13478 6.39801 1.95501 5.8739 1.96264H3.6739C3.35786 1.95967 3.04489 2.02483 2.75629 2.15369C2.46769 2.28255 2.21025 2.47208 2.00149 2.70938C1.79272 2.94667 1.63754 3.22616 1.54649 3.52883C1.45545 3.83149 1.43069 4.15021 1.4739 4.4633C1.86458 7.53552 3.26766 10.39 5.46151 12.5759C7.65537 14.7618 10.515 16.1545 13.5886 16.534H13.8672C14.408 16.5348 14.9301 16.3364 15.3339 15.9766C15.5659 15.7691 15.7512 15.5148 15.8776 15.2303C16.0041 14.9459 16.0687 14.6379 16.0672 14.3266V12.1266C16.0583 11.6173 15.8728 11.1268 15.5424 10.7389C15.2121 10.3511 14.7574 10.0899 14.2559 9.99997ZM14.6226 14.4C14.6224 14.5041 14.6001 14.607 14.5571 14.7018C14.5142 14.7967 14.4515 14.8813 14.3732 14.95C14.2913 15.0207 14.1955 15.0736 14.0919 15.1051C13.9884 15.1367 13.8794 15.1463 13.7719 15.1333C11.0255 14.7812 8.47448 13.5247 6.52123 11.5622C4.56798 9.59964 3.32367 7.04268 2.98457 4.29464C2.9729 4.18722 2.98313 4.07854 3.01464 3.97519C3.04615 3.87183 3.09829 3.77594 3.1679 3.6933C3.23662 3.61508 3.32121 3.55239 3.41605 3.50939C3.51088 3.4664 3.61378 3.4441 3.7179 3.44397H5.9179C6.08844 3.44017 6.25496 3.49595 6.38881 3.60169C6.52266 3.70743 6.61546 3.85652 6.65124 4.0233C6.68057 4.22375 6.71724 4.42175 6.76124 4.6173C6.84595 5.00387 6.95869 5.38377 7.09857 5.75397L6.0719 6.23064C5.98412 6.27091 5.90516 6.32813 5.83955 6.39901C5.77394 6.46988 5.72298 6.55302 5.6896 6.64365C5.65621 6.73427 5.64105 6.8306 5.64499 6.9271C5.64893 7.0236 5.6719 7.11837 5.71257 7.20597C6.76798 9.46666 8.58522 11.2839 10.8459 12.3393C11.0244 12.4127 11.2247 12.4127 11.4032 12.3393C11.4947 12.3066 11.5787 12.256 11.6505 12.1906C11.7223 12.1251 11.7803 12.046 11.8212 11.958L12.2759 10.9313C12.655 11.0669 13.0419 11.1795 13.4346 11.2686C13.6301 11.3126 13.8281 11.3493 14.0286 11.3786C14.1954 11.4144 14.3444 11.5072 14.4502 11.6411C14.5559 11.7749 14.6117 11.9414 14.6079 12.112L14.6226 14.4Z" fill="#661ED3"/>
</svg>
