<svg width="19" height="18" viewBox="0 0 19 18" fill="none" xmlns="http://www.w3.org/2000/svg">
<path d="M17.446 3.96445C16.8478 4.22914 16.2085 4.40789 15.5347 4.49039C16.2222 4.07789 16.7516 3.42477 16.9991 2.64789C16.3563 3.02945 15.6447 3.30789 14.885 3.4557C14.2766 2.80602 13.4103 2.40039 12.4547 2.40039C10.6157 2.40039 9.12722 3.89227 9.12722 5.73133C9.12722 5.99258 9.15472 6.24695 9.21316 6.49102C6.44597 6.35352 3.9916 5.02664 2.35191 3.00883C2.0666 3.50039 1.9016 4.07445 1.9016 4.68289C1.9016 5.83789 2.49285 6.85883 3.3866 7.45695C2.8366 7.4432 2.32097 7.29195 1.8741 7.04102V7.08227C1.8741 8.69789 3.02222 10.042 4.54504 10.3479C4.2666 10.4235 3.97097 10.4648 3.66847 10.4648C3.45535 10.4648 3.24566 10.4441 3.04285 10.4029C3.46566 11.7263 4.69629 12.6888 6.15379 12.7163C5.01597 13.6101 3.5791 14.1429 2.01847 14.1429C1.75035 14.1429 1.48566 14.1257 1.22441 14.0948C2.69222 15.0504 4.44191 15.6004 6.31879 15.6004C12.4478 15.6004 15.796 10.5232 15.796 6.11977C15.796 5.97539 15.7925 5.83102 15.7857 5.69008C16.4353 5.21914 16.9991 4.63477 17.446 3.96445Z" fill="#313131"/>
</svg>
